<?xml version="1.0" standalone="no"?><!DOCTYPE svg PUBLIC "-//W3C//DTD SVG 1.1//EN" "http://www.w3.org/Graphics/SVG/1.1/DTD/svg11.dtd"><svg t="1750910548806" class="icon" viewBox="0 0 1024 1024" version="1.1" xmlns="http://www.w3.org/2000/svg" p-id="7812" xmlns:xlink="http://www.w3.org/1999/xlink" width="200" height="200"><path d="M953.405262 126.664119a59.40344 59.40344 0 0 0-83.915919-1.731001L381.347053 593.131266l-31.534323 107.171542c-0.978392 3.236219 1.956784 6.321917 5.268264 5.494046l108.375716-27.018668 488.14229-468.198148a59.200235 59.200235 0 0 0 1.806262-83.915919z m-26.491841 81.281787L460.672056 655.070998l-71.347346 28.298104c-0.451565 0.752609-0.82787 1.505218-1.505219 2.107305-3.010437 2.859915-7.074526 3.687785-10.912832 2.784654l-9.181832 3.687785c-2.859915 1.128914-4.816699-0.978392-3.612524-3.763046l4.06409-9.031309c-0.752609-3.838307 0.225783-7.902396 3.236219-10.762311 0.677348-0.602087 1.429957-0.978392 2.182567-1.429957l31.233279-70.067912 466.241364-447.200352c22.578274-21.675143 53.359988-26.190798 68.788476-10.160224 15.428487 16.181097 9.633397 46.737028-12.944877 68.412171z" p-id="7813"></path><path d="M833.288843 469.703366a33.114802 33.114802 0 0 0-33.114802 33.114802v289.905042a52.456857 52.456857 0 0 1-52.456857 52.456858H278.390122a52.456857 52.456857 0 0 1-52.456857-52.456858V323.396149A52.456857 52.456857 0 0 1 278.390122 270.939291H568.219903a33.114802 33.114802 0 0 0 0-66.229604H212.085257a52.456857 52.456857 0 0 0-52.456858 52.456857v601.861532a52.456857 52.456857 0 0 0 52.456858 52.456857h601.861531a52.456857 52.456857 0 0 0 52.456857-52.456857V502.818168a33.114802 33.114802 0 0 0-33.114802-33.114802z" p-id="7814"></path></svg>